<?xml version="1.0" standalone="no"?>
<!DOCTYPE svg PUBLIC "-//W3C//DTD SVG 20010904//EN"
 "http://www.w3.org/TR/2001/REC-SVG-20010904/DTD/svg10.dtd">
<svg version="1.0" xmlns="http://www.w3.org/2000/svg"
 width="512.000000pt" height="512.000000pt" viewBox="0 0 512.000000 512.000000"
 preserveAspectRatio="xMidYMid meet">
<metadata>
Created by potrace 1.14, written by Peter Selinger 2001-2017
</metadata>
<g transform="translate(0.000000,512.000000) scale(0.100000,-0.100000)"
fill="#000000" stroke="none">
<path d="M2315 5109 c-800 -83 -1501 -518 -1927 -1196 -487 -774 -516 -1777
-75 -2578 200 -364 487 -676 841 -913 238 -159 600 -311 876 -366 214 -43 295
-51 530 -51 236 0 333 10 532 51 880 184 1615 842 1898 1702 92 278 125 491
125 802 0 301 -32 513 -116 775 -124 390 -330 728 -622 1024 -399 404 -893
653 -1462 737 -123 18 -478 26 -600 13z m446 -480 c404 -41 794 -200 1103
-450 543 -437 835 -1133 766 -1820 -92 -907 -762 -1652 -1648 -1834 -931 -191
-1865 266 -2286 1116 -393 794 -236 1753 390 2383 438 442 1064 668 1675 605z"/>
<path d="M2480 4147 c-49 -16 -133 -102 -148 -153 -17 -58 -17 -1449 0 -1505
6 -22 26 -56 44 -77 36 -43 1019 -703 1073 -721 84 -28 167 -6 236 64 102 101
100 241 -3 337 -26 24 -235 167 -464 318 l-417 275 0 634 c-1 459 -4 645 -13
673 -17 59 -88 133 -145 152 -53 18 -112 19 -163 3z"/>
</g>
</svg>
